<?xml version="1.0" encoding="UTF-8" standalone="no"?>
<!DOCTYPE svg PUBLIC "-//W3C//DTD SVG 1.1//EN"
 "http://www.w3.org/Graphics/SVG/1.1/DTD/svg11.dtd">
<!-- Generated by graphviz version 2.30.1 (20201013.1554)
 -->
<!-- Title: %3 Pages: 1 -->
<svg width="411pt" height="269pt"
 viewBox="0.00 0.00 411.00 269.00" xmlns="http://www.w3.org/2000/svg" xmlns:xlink="http://www.w3.org/1999/xlink">
<g id="graph0" class="graph" transform="scale(1 1) rotate(0) translate(4 265)">
<title>%3</title>
<polygon fill="white" stroke="white" points="-4,5 -4,-265 408,-265 408,5 -4,5"/>
<g id="clust1" class="cluster"><title>cluster_data2</title>
<polygon fill="none" stroke="black" points="134,-44 134,-119 214,-119 214,-44 134,-44"/>
<text text-anchor="middle" x="191" y="-51.8" font-family="Times,serif" font-size="14.00">data2</text>
</g>
<!-- a -->
<g id="node1" class="node"><title>a</title>
<ellipse fill="white" stroke="black" cx="27" cy="-204" rx="27" ry="18"/>
<text text-anchor="middle" x="27" y="-200.3" font-family="Times,serif" font-size="14.00">a</text>
</g>
<!-- psi -->
<g id="node3" class="node"><title>psi</title>
<ellipse fill="white" stroke="black" cx="97" cy="-93" rx="27" ry="18"/>
<text text-anchor="middle" x="97" y="-89.3" font-family="Times,serif" font-size="14.00">psi</text>
</g>
<!-- a&#45;&gt;psi -->
<g id="edge2" class="edge"><title>a&#45;&gt;psi</title>
<path fill="none" stroke="black" d="M37.3287,-186.917C48.9236,-168.862 67.8684,-139.362 81.2983,-118.45"/>
<polygon fill="black" stroke="black" points="84.3978,-120.101 86.8565,-109.795 78.5077,-116.318 84.3978,-120.101"/>
</g>
<!-- b -->
<g id="node2" class="node"><title>b</title>
<ellipse fill="white" stroke="black" cx="99" cy="-204" rx="27" ry="18"/>
<text text-anchor="middle" x="99" y="-200.3" font-family="Times,serif" font-size="14.00">b</text>
</g>
<!-- b&#45;&gt;psi -->
<g id="edge1" class="edge"><title>b&#45;&gt;psi</title>
<path fill="none" stroke="black" d="M98.6875,-185.969C98.3709,-168.712 97.876,-141.743 97.5039,-121.462"/>
<polygon fill="black" stroke="black" points="101,-121.205 97.3169,-111.271 94.001,-121.334 101,-121.205"/>
</g>
<!-- obs -->
<g id="node6" class="node"><title>obs</title>
<ellipse fill="gray" stroke="black" cx="135" cy="-18" rx="27" ry="18"/>
<text text-anchor="middle" x="135" y="-14.3" font-family="Times,serif" font-size="14.00">obs</text>
</g>
<!-- psi&#45;&gt;obs -->
<g id="edge5" class="edge"><title>psi&#45;&gt;obs</title>
<path fill="none" stroke="black" d="M105.433,-75.7989C110.255,-66.5369 116.407,-54.7179 121.85,-44.2622"/>
<polygon fill="black" stroke="black" points="125.077,-45.6421 126.59,-35.1558 118.868,-42.4099 125.077,-45.6421"/>
</g>
<!-- pi -->
<g id="node4" class="node"><title>pi</title>
<ellipse fill="white" stroke="black" cx="173" cy="-204" rx="27" ry="18"/>
<text text-anchor="middle" x="173" y="-200.3" font-family="Times,serif" font-size="14.00">pi</text>
</g>
<!-- assign -->
<g id="node7" class="node"><title>assign</title>
<ellipse fill="white" stroke="black" cx="174" cy="-93" rx="32.2457" ry="18"/>
<text text-anchor="middle" x="174" y="-89.3" font-family="Times,serif" font-size="14.00">assign</text>
</g>
<!-- pi&#45;&gt;assign -->
<g id="edge4" class="edge"><title>pi&#45;&gt;assign</title>
<path fill="none" stroke="black" d="M173.156,-185.969C173.315,-168.712 173.562,-141.743 173.748,-121.462"/>
<polygon fill="black" stroke="black" points="177.25,-121.303 173.842,-111.271 170.25,-121.239 177.25,-121.303"/>
</g>
<!-- conc -->
<g id="node5" class="node"><title>conc</title>
<ellipse fill="white" stroke="black" cx="245" cy="-204" rx="26.949" ry="18"/>
<text text-anchor="middle" x="245" y="-200.3" font-family="Times,serif" font-size="14.00">conc</text>
</g>
<!-- conc&#45;&gt;assign -->
<g id="edge3" class="edge"><title>conc&#45;&gt;assign</title>
<path fill="none" stroke="black" d="M234.655,-186.792C227.488,-175.592 217.707,-160.363 209,-147 202.95,-137.715 196.256,-127.552 190.356,-118.631"/>
<polygon fill="black" stroke="black" points="193.214,-116.608 184.775,-110.203 187.378,-120.473 193.214,-116.608"/>
</g>
<!-- assign&#45;&gt;obs -->
<g id="edge6" class="edge"><title>assign&#45;&gt;obs</title>
<path fill="none" stroke="black" d="M165.15,-75.4352C160.229,-66.2239 154.003,-54.5692 148.488,-44.2459"/>
<polygon fill="black" stroke="black" points="151.48,-42.4187 143.68,-35.2478 145.305,-45.7173 151.48,-42.4187"/>
</g>
<!-- distribution_description_node -->
<g id="node8" class="node"><title>distribution_description_node</title>
<text text-anchor="start" x="298.5" y="-245.3" font-family="Times,serif" font-size="14.00">a ~ Gamma</text>
<text text-anchor="start" x="298.5" y="-230.3" font-family="Times,serif" font-size="14.00">b ~ Gamma</text>
<text text-anchor="start" x="298.5" y="-215.3" font-family="Times,serif" font-size="14.00">psi ~ Beta</text>
<text text-anchor="start" x="298.5" y="-200.3" font-family="Times,serif" font-size="14.00">pi ~ Dirichlet</text>
<text text-anchor="start" x="298.5" y="-185.3" font-family="Times,serif" font-size="14.00">conc ~ Gamma</text>
<text text-anchor="start" x="298.5" y="-170.3" font-family="Times,serif" font-size="14.00">assign ~ Dirichlet</text>
<text text-anchor="start" x="298.5" y="-155.3" font-family="Times,serif" font-size="14.00">obs ~ Unit</text>
</g>
</g>
</svg>
